<svg width="30" height="30" viewBox="0 0 30 30" fill="none" xmlns="http://www.w3.org/2000/svg">
<path d="M28.8134 10.4967L29.2568 7.96336C29.3834 7.4567 29.0034 7.01336 28.4968 7.01336H23.8101L24.6968 1.88336C24.8234 1.3767 24.4434 0.933363 23.9368 0.933363H21.4034C21.0234 0.933363 20.7068 1.25003 20.6434 1.5667L19.6934 7.01336H13.4234L14.3734 1.88336C14.4368 1.3767 14.0568 0.933363 13.6134 0.933363H11.0168C10.6368 0.933363 10.3201 1.25003 10.2568 1.5667L9.30678 7.01336H4.30344C3.92344 7.01336 3.60678 7.33003 3.54344 7.6467L3.10011 10.18C3.03678 10.6867 3.35344 11.0667 3.86011 11.0667H8.61011L7.15344 19.1734H2.15011C1.77011 19.1734 1.45344 19.49 1.39011 19.8067L0.946777 22.34C0.820111 22.8467 1.20011 23.2267 1.70678 23.2267H6.39344L5.50678 28.42C5.38011 28.9267 5.76011 29.3067 6.26678 29.3067H8.80011C9.18011 29.3067 9.49678 29.0534 9.56011 28.7367L10.5101 23.2267H16.7801L15.8301 28.42C15.7668 28.9267 16.1468 29.3067 16.5901 29.3067H19.1868C19.5668 29.3067 19.8834 29.0534 19.9468 28.7367L20.8968 23.2267H25.9001C26.2801 23.2267 26.5968 22.9734 26.6601 22.6567L27.1034 20.1234C27.1668 19.6167 26.8501 19.1734 26.3434 19.1734H21.5934L23.0501 11.0667H28.0534C28.4334 11.0667 28.7501 10.8134 28.8134 10.4967ZM17.4768 19.1734H11.2701L12.7268 11.0667H18.9334L17.4768 19.1734Z" fill="#FFD700"/>
</svg>
