<svg width="34" height="26" viewBox="0 0 34 26" fill="none" xmlns="http://www.w3.org/2000/svg">
<path d="M32.6866 9.00336C31.23 10.1434 29.3933 11.5367 22.9333 16.2234C21.6666 17.1734 19.3233 19.2634 17.1066 19.2634C14.8266 19.2634 12.5466 17.1734 11.2166 16.2234C4.75664 11.5367 2.91998 10.1434 1.46331 9.00336C1.20998 8.81336 0.893311 9.00336 0.893311 9.32003V22.24C0.893311 23.95 2.22331 25.28 3.93331 25.28H30.28C31.9266 25.28 33.32 23.95 33.32 22.24V9.32003C33.32 9.00336 32.94 8.81336 32.6866 9.00336ZM17.1066 17.1734C18.5633 17.2367 20.6533 15.3367 21.73 14.5767C30.1533 8.4967 30.7866 7.9267 32.6866 6.4067C33.0666 6.15336 33.32 5.71003 33.32 5.20336V4.00003C33.32 2.35336 31.9266 0.96003 30.28 0.96003H3.93331C2.22331 0.96003 0.893311 2.35336 0.893311 4.00003V5.20336C0.893311 5.71003 1.08331 6.15336 1.46331 6.4067C3.36331 7.9267 3.99664 8.4967 12.42 14.5767C13.4966 15.3367 15.5866 17.2367 17.1066 17.1734Z" fill="#FFD700"/>
</svg>
