<svg width="38" height="30" viewBox="0 0 38 30" fill="none" xmlns="http://www.w3.org/2000/svg">
<path d="M18.52 8.34336L6.86662 17.97V28.2934C6.86662 28.8634 7.30995 29.3067 7.87995 29.3067H14.9733C15.48 29.3067 15.9233 28.8634 15.9233 28.2934V22.2134C15.9233 21.7067 16.43 21.2 16.9366 21.2H20.99C21.56 21.2 22.0033 21.7067 22.0033 22.2134V28.2934C22.0033 28.8634 22.51 29.3067 23.0166 29.3067H30.1733C30.68 29.3067 31.1866 28.8634 31.1866 28.2934V17.9067L19.47 8.34336C19.3433 8.2167 19.1533 8.15336 19.0266 8.15336C18.8366 8.15336 18.6466 8.2167 18.52 8.34336ZM36.95 14.8667L31.6933 10.4967V1.7567C31.6933 1.31336 31.3133 0.996696 30.9333 0.996696H27.3866C26.9433 0.996696 26.6266 1.31336 26.6266 1.7567V6.3167L20.9266 1.63003C20.42 1.25003 19.7233 0.996696 19.0266 0.996696C18.2666 0.996696 17.57 1.25003 17.0633 1.63003L1.03995 14.8667C0.849954 14.9934 0.723288 15.2467 0.723288 15.4367C0.723288 15.6267 0.849954 15.8167 0.913288 15.9434L2.55995 17.9067C2.68662 18.0967 2.87662 18.16 3.12995 18.16C3.31995 18.16 3.50995 18.0967 3.63662 17.97L18.52 5.7467C18.6466 5.62003 18.8366 5.5567 19.0266 5.5567C19.1533 5.5567 19.3433 5.62003 19.47 5.7467L34.3533 17.97C34.48 18.0967 34.67 18.16 34.86 18.16C35.1133 18.16 35.3033 18.0967 35.43 17.9067L37.0766 15.9434C37.2033 15.8167 37.2666 15.6267 37.2666 15.4367C37.2666 15.2467 37.14 14.9934 36.95 14.8667Z" fill="#FFD700"/>
</svg>
