<svg width="25" height="25" viewBox="0 0 25 25" fill="none" xmlns="http://www.w3.org/2000/svg">
<path d="M20.1473 8.12721H14.5353L15.6583 4.76021C15.8603 4.15221 15.7583 3.47821 15.3833 2.95821C15.0083 2.43821 14.4003 2.12721 13.7593 2.12721H12.1473C11.8503 2.12721 11.5693 2.25921 11.3783 2.48721L6.67834 8.12721H4.14734C3.04434 8.12721 2.14734 9.02421 2.14734 10.1272V19.1272C2.14734 20.2302 3.04434 21.1272 4.14734 21.1272H17.4543C17.8612 21.1259 18.2581 21.0011 18.5926 20.7693C18.927 20.5375 19.1832 20.2097 19.3273 19.8292L22.0843 12.4782C22.1262 12.3659 22.1475 12.247 22.1473 12.1272V10.1272C22.1473 9.02421 21.2503 8.12721 20.1473 8.12721ZM4.14734 10.1272H6.14734V19.1272H4.14734V10.1272ZM20.1473 11.9462L17.4543 19.1272H8.14734V9.48921L12.6153 4.12721H13.7613L12.1993 8.81021C12.1486 8.96053 12.1345 9.12077 12.1581 9.27764C12.1817 9.43451 12.2423 9.5835 12.335 9.71225C12.4277 9.84101 12.5497 9.94581 12.691 10.018C12.8323 10.0901 12.9887 10.1276 13.1473 10.1272H20.1473V11.9462Z" fill="#FFD700"/>
</svg>
