<svg width="34" height="34" viewBox="0 0 34 34" fill="none" xmlns="http://www.w3.org/2000/svg">
<path d="M32.0632 2.49003L25.4765 0.97003C24.7798 0.78003 24.0198 1.16003 23.7032 1.8567L20.6632 8.95003C20.4098 9.58336 20.5998 10.28 21.1065 10.7234L24.9698 13.89C22.6898 18.7034 18.6998 22.7567 13.7598 25.1L10.5932 21.2367C10.1498 20.73 9.45318 20.54 8.81984 20.7934L1.72651 23.8334C1.02984 24.15 0.713177 24.91 0.839844 25.6067L2.35984 32.1934C2.54984 32.89 3.11984 33.3334 3.87984 33.3334C20.0932 33.3334 33.2665 20.2234 33.2665 3.9467C33.2665 3.25003 32.7598 2.68003 32.0632 2.49003Z" fill="#FFD700"/>
</svg>
