<svg width="24" height="24" viewBox="0 0 24 24" fill="none" xmlns="http://www.w3.org/2000/svg">
<path d="M20.916 9.564C20.9688 9.44392 20.9975 9.3146 21.0003 9.18345C21.0031 9.05229 20.98 8.92187 20.9323 8.79964C20.8847 8.67741 20.8134 8.56578 20.7226 8.47112C20.6318 8.37646 20.5232 8.30064 20.403 8.248L7.328 2.492C6.333 2.054 5.108 2.543 4.683 3.534L2.473 8.688C2.26509 9.17552 2.25909 9.72562 2.45632 10.2176C2.65354 10.7095 3.03789 11.1031 3.525 11.312L9.563 13.9L8.323 17H4V14H2V22H4V19H8.323C9.146 19 9.875 18.506 10.179 17.742L11.401 14.688L16.606 16.918C16.8484 17.022 17.1221 17.026 17.3674 16.9292C17.6128 16.8324 17.81 16.6425 17.916 16.401L18.228 15.691L19.929 16.371L21.929 11.371L20.393 10.758L20.916 9.564ZM16.482 14.69L4.313 9.475L6.521 4.323L18.683 9.677L16.482 14.69Z" fill="#FFD700"/>
</svg>
